<svg width="240" height="240" viewBox="0 0 240 240" fill="none" xmlns="http://www.w3.org/2000/svg">
<g clip-path="url(#clip0_32_285)">
<path d="M71.0229 125.422C70.9402 117.237 73.3404 110.217 88.2383 95.3509L120.517 63.1407C129.125 54.5513 136.326 47.209 136.326 39.1895V26.5532C136.326 25.8182 135.415 25.8182 135.332 26.5532C133.18 36.7944 129.125 40.8413 120.6 49.3564L83.1068 86.6789C68.9538 100.719 66.9674 115.668 70.0297 125.422C70.278 126.248 71.0229 126.322 71.0229 125.422ZM124.159 157.55C124.159 158.285 124.987 158.285 125.152 157.55C127.304 147.226 131.442 143.179 139.885 134.746L152.399 122.449C168.787 106.013 161.255 90.2385 151.654 85.853C150.826 85.44 150.495 86.109 151.157 86.6789C158.855 93.2861 156.537 104.436 146.853 114.099L139.984 120.979C131.376 129.494 124.175 136.836 124.175 144.93L124.159 157.55ZM191.862 179.518L154.054 173.151L139.901 187.282C131.293 195.863 124.175 203.222 124.175 211.233V213.48C124.175 214.058 124.92 214.223 125.169 213.57C127.817 206.385 136.673 198.613 152.895 201.347C152.895 201.347 223.578 213.57 224.157 213.57C224.333 213.599 224.513 213.564 224.664 213.471C224.816 213.379 224.93 213.235 224.985 213.067C225.021 212.952 225.025 212.83 224.995 212.713C224.966 212.596 224.905 212.49 224.819 212.406C224.571 212.084 191.878 179.535 191.878 179.535L191.862 179.518ZM102.888 180.344H115.303C115.431 180.333 115.551 180.277 115.642 180.187C115.732 180.096 115.788 179.977 115.8 179.849C115.8 173.324 110.834 168.856 90.9696 172.251L48.1132 179.618C48.1132 179.618 15.4867 212.133 15.2384 212.472C15.1084 212.583 15.0269 212.74 15.0115 212.909C14.996 213.079 15.0478 213.248 15.1556 213.38C15.2411 213.465 15.3476 213.524 15.4641 213.553C15.5805 213.582 15.7027 213.58 15.8178 213.546C16.3971 213.455 87.0796 201.322 87.0796 201.322C103.302 198.589 112.158 206.278 114.806 213.546C115.055 214.206 115.8 214.124 115.8 213.455V189.091C115.788 188.963 115.732 188.843 115.642 188.753C115.551 188.662 115.431 188.606 115.303 188.595L102.888 188.678C102.759 188.67 102.637 188.615 102.546 188.524C102.454 188.433 102.399 188.311 102.391 188.182V180.832C102.401 180.703 102.456 180.583 102.547 180.492C102.639 180.401 102.759 180.346 102.888 180.336V180.344ZM125.069 201.735C125.894 196.988 127.853 192.509 130.78 188.678H124.573C124.443 188.688 124.321 188.744 124.23 188.837C124.138 188.929 124.084 189.052 124.076 189.182V201.735C124.076 202.47 124.987 202.47 125.069 201.735ZM136.326 70.7472C136.326 69.9957 135.415 69.9957 135.332 70.7472C133.18 80.9802 129.125 85.0271 120.6 93.5421L87.659 126.322C71.2712 142.683 78.803 158.532 88.4039 162.918C89.2315 163.331 89.5626 162.588 88.9005 162.092C81.2032 155.485 83.5207 144.244 93.2043 134.672L120.517 107.417C129.125 98.8279 136.326 91.4774 136.326 83.4661V70.7472ZM120.517 85.1923C129.125 76.6855 136.243 69.3349 136.326 61.2411V48.5222C136.326 47.7789 135.415 47.7789 135.332 48.5222C133.18 58.7634 129.125 62.8929 120.6 71.3997L86.7485 105.105C70.3608 121.458 67.464 137.315 75.8234 147.556C76.4027 148.217 76.9821 147.804 76.651 146.978C71.1057 134.507 84.3483 121.292 90.6386 115.016L120.517 85.1923ZM151.637 153.329L139.802 165.057C134.422 170.425 129.622 175.298 126.725 180.254H138.395L139.802 178.85L156.769 161.919C170.922 147.961 172.908 133.012 169.846 123.266C169.598 122.44 168.853 122.358 168.853 123.266C168.936 131.443 166.535 138.463 151.637 153.329ZM149.32 133.508L139.885 143.005C131.277 151.595 124.076 159.028 124.076 167.047V179.684C124.076 180.419 124.987 180.419 125.069 179.684C127.221 169.442 131.277 165.313 139.802 156.806L153.226 143.418C169.614 127.065 172.511 111.208 164.152 100.967C163.572 100.306 162.993 100.719 163.324 101.545C168.853 114.016 155.61 127.231 149.32 133.508ZM218.43 189.834H219.34L220.747 192.312H221.989L220.333 189.586C220.667 189.463 220.951 189.235 221.145 188.938C221.339 188.64 221.432 188.289 221.409 187.934C221.409 186.696 220.747 186.117 219.175 186.117H217.354V192.312H218.43V189.834ZM218.43 186.943H219.092C219.92 186.943 220.251 187.191 220.251 187.934C220.251 188.513 219.837 188.926 219.092 188.926H218.347V186.943H218.43ZM219.257 194.376C220.289 194.376 221.297 194.071 222.154 193.5C223.012 192.928 223.68 192.115 224.075 191.164C224.47 190.214 224.573 189.168 224.372 188.158C224.17 187.149 223.674 186.222 222.945 185.494C222.215 184.766 221.286 184.271 220.275 184.07C219.263 183.869 218.215 183.972 217.262 184.366C216.309 184.76 215.495 185.427 214.922 186.283C214.349 187.138 214.043 188.144 214.043 189.173C214.019 189.833 214.125 190.492 214.356 191.111C214.588 191.73 214.939 192.298 215.39 192.781C215.842 193.264 216.384 193.654 216.987 193.928C217.589 194.202 218.24 194.354 218.902 194.376H219.257ZM219.257 184.713C220.443 184.713 221.58 185.183 222.418 186.02C223.256 186.856 223.727 187.99 223.727 189.173C223.727 190.356 223.256 191.491 222.418 192.327C221.58 193.163 220.443 193.633 219.257 193.633C218.68 193.643 218.105 193.539 217.568 193.327C217.03 193.115 216.54 192.8 216.125 192.398C215.71 191.997 215.378 191.518 215.149 190.989C214.919 190.46 214.797 189.89 214.788 189.314V189.182C214.772 188.612 214.868 188.044 215.072 187.512C215.276 186.98 215.583 186.493 215.976 186.079C216.369 185.665 216.84 185.333 217.362 185.102C217.884 184.87 218.446 184.744 219.017 184.73H219.257V184.713Z" fill="#1B4F8A"/>
</g>
<defs>
<clipPath id="clip0_32_285">
<rect width="210" height="188" fill="white" transform="translate(15 26)"/>
</clipPath>
</defs>
</svg>
